<svg aria-hidden="true" style="position: absolute; width: 0; height: 0; overflow: hidden;" version="1.1" xmlns="http://www.w3.org/2000/svg" xmlns:xlink="http://www.w3.org/1999/xlink">
<defs>
<symbol id="icon-search" viewBox="0 0 16 16">
<path d="M15.504 13.616l-3.79-3.223c-0.392-0.353-0.811-0.514-1.149-0.499 0.895-1.048 1.435-2.407 1.435-3.893 0-3.314-2.686-6-6-6s-6 2.686-6 6 2.686 6 6 6c1.486 0 2.845-0.54 3.893-1.435-0.016 0.338 0.146 0.757 0.499 1.149l3.223 3.79c0.552 0.613 1.453 0.665 2.003 0.115s0.498-1.452-0.115-2.003zM6 10c-2.209 0-4-1.791-4-4s1.791-4 4-4 4 1.791 4 4-1.791 4-4 4z"></path>
</symbol>
<symbol id="icon-sun" viewBox="0 0 16 16">
<path d="M8 13c0.552 0 1 0.448 1 1v1c0 0.552-0.448 1-1 1s-1-0.448-1-1v-1c0-0.552 0.448-1 1-1zM8 3c-0.552 0-1-0.448-1-1v-1c0-0.552 0.448-1 1-1s1 0.448 1 1v1c0 0.552-0.448 1-1 1zM15 7c0.552 0 1 0.448 1 1s-0.448 1-1 1h-1c-0.552 0-1-0.448-1-1s0.448-1 1-1h1zM3 8c0 0.552-0.448 1-1 1h-1c-0.552 0-1-0.448-1-1s0.448-1 1-1h1c0.552 0 1 0.448 1 1zM12.95 11.536l0.707 0.707c0.39 0.39 0.39 1.024 0 1.414s-1.024 0.39-1.414 0l-0.707-0.707c-0.39-0.39-0.39-1.024 0-1.414s1.024-0.39 1.414 0zM3.050 4.464l-0.707-0.707c-0.391-0.391-0.391-1.024 0-1.414s1.024-0.391 1.414 0l0.707 0.707c0.391 0.391 0.391 1.024 0 1.414s-1.024 0.391-1.414 0zM12.95 4.464c-0.39 0.391-1.024 0.391-1.414 0s-0.39-1.024 0-1.414l0.707-0.707c0.39-0.391 1.024-0.391 1.414 0s0.39 1.024 0 1.414l-0.707 0.707zM3.050 11.536c0.39-0.39 1.024-0.39 1.414 0s0.391 1.024 0 1.414l-0.707 0.707c-0.391 0.39-1.024 0.39-1.414 0s-0.391-1.024 0-1.414l0.707-0.707z"></path>
<path d="M8 4c-2.209 0-4 1.791-4 4s1.791 4 4 4c2.209 0 4-1.791 4-4s-1.791-4-4-4zM8 10.5c-1.381 0-2.5-1.119-2.5-2.5s1.119-2.5 2.5-2.5 2.5 1.119 2.5 2.5-1.119 2.5-2.5 2.5z"></path>
</symbol>
<symbol id="icon-IcoMoon" viewBox="0 0 16 16">
<path d="M4.055 8c0-1.022 0.829-1.851 1.851-1.851s1.851 0.829 1.851 1.851c0 1.022-0.829 1.851-1.851 1.851s-1.851-0.829-1.851-1.851zM8 0c-4.418 0-8 3.582-8 8s3.582 8 8 8c4.418 0 8-3.582 8-8s-3.582-8-8-8zM5.928 14.989c-2.406-1.4-4.023-4.005-4.023-6.989s1.617-5.589 4.023-6.989c2.406 1.399 4.025 4.005 4.025 6.989s-1.618 5.589-4.025 6.989z"></path>
</symbol>
</defs>
</svg>
